<svg width="718" height="336" viewBox="0 0 718 336" fill="none" xmlns="http://www.w3.org/2000/svg">
<rect width="718" height="336" rx="42" fill="#2B2D29"/>
<rect x="25" y="25" width="668" height="286" rx="34" fill="#080F08"/>
<rect x="109" y="57" width="500" height="222" fill="#080E08" stroke="#182F24" stroke-width="4"/>
<path d="M112.322 59.1658H605.678V99.2341H112.322V59.1658Z" fill="#182F24"/>
<path d="M320.68 166.36V158.14H300.04V153.7L318.16 124.48H325.48V154H331.72V158.14H325.48V166.36H320.68ZM304.54 154H320.68V128.38H320.44L304.54 154ZM351.977 167.08C349.417 167.08 347.217 166.6 345.377 165.64C343.537 164.64 342.017 163.22 340.817 161.38C339.617 159.54 338.737 157.28 338.177 154.6C337.617 151.92 337.337 148.86 337.337 145.42C337.337 142.02 337.617 138.98 338.177 136.3C338.737 133.58 339.617 131.3 340.817 129.46C342.017 127.62 343.537 126.22 345.377 125.26C347.217 124.26 349.417 123.76 351.977 123.76C354.537 123.76 356.737 124.26 358.577 125.26C360.417 126.22 361.937 127.62 363.137 129.46C364.337 131.3 365.217 133.58 365.777 136.3C366.337 138.98 366.617 142.02 366.617 145.42C366.617 148.86 366.337 151.92 365.777 154.6C365.217 157.28 364.337 159.54 363.137 161.38C361.937 163.22 360.417 164.64 358.577 165.64C356.737 166.6 354.537 167.08 351.977 167.08ZM351.977 162.7C353.657 162.7 355.097 162.38 356.297 161.74C357.497 161.06 358.457 160.12 359.177 158.92C359.937 157.72 360.497 156.28 360.857 154.6C361.217 152.88 361.397 150.96 361.397 148.84V142C361.397 139.92 361.217 138.02 360.857 136.3C360.497 134.58 359.937 133.12 359.177 131.92C358.457 130.72 357.497 129.8 356.297 129.16C355.097 128.48 353.657 128.14 351.977 128.14C350.297 128.14 348.857 128.48 347.657 129.16C346.457 129.8 345.477 130.72 344.717 131.92C343.997 133.12 343.457 134.58 343.097 136.3C342.737 138.02 342.557 139.92 342.557 142V148.84C342.557 150.96 342.737 152.88 343.097 154.6C343.457 156.28 343.997 157.72 344.717 158.92C345.477 160.12 346.457 161.06 347.657 161.74C348.857 162.38 350.297 162.7 351.977 162.7ZM351.977 148.96C350.577 148.96 349.597 148.68 349.037 148.12C348.517 147.56 348.257 146.88 348.257 146.08V144.76C348.257 143.96 348.517 143.28 349.037 142.72C349.597 142.16 350.577 141.88 351.977 141.88C353.377 141.88 354.337 142.16 354.857 142.72C355.417 143.28 355.697 143.96 355.697 144.76V146.08C355.697 146.88 355.417 147.56 354.857 148.12C354.337 148.68 353.377 148.96 351.977 148.96ZM375.053 166.36V161.98H387.053V128.2H386.633L376.073 138.04L373.133 134.86L384.233 124.48H392.093V161.98H403.133V166.36H375.053Z" fill="#EEF4E8"/>
<path d="M149.92 178.06V190.63C149.92 191.65 149.95 192.56 150.01 193.36C150.07 194.16 150.23 194.85 150.49 195.43C150.75 195.99 151.15 196.42 151.69 196.72C152.25 197.02 153.02 197.17 154 197.17C154.98 197.17 155.74 197.02 156.28 196.72C156.84 196.42 157.25 195.99 157.51 195.43C157.77 194.85 157.93 194.16 157.99 193.36C158.05 192.56 158.08 191.65 158.08 190.63V178.06H160.6V190.03C160.6 191.59 160.52 192.95 160.36 194.11C160.22 195.27 159.91 196.24 159.43 197.02C158.97 197.8 158.3 198.39 157.42 198.79C156.56 199.17 155.42 199.36 154 199.36C152.58 199.36 151.43 199.17 150.55 198.79C149.69 198.39 149.02 197.8 148.54 197.02C148.08 196.24 147.77 195.27 147.61 194.11C147.47 192.95 147.4 191.59 147.4 190.03V178.06H149.92ZM185.867 181.27H185.657V199H183.377V178.06H186.947L194.087 195.61H194.297V178.06H196.577V199H193.007L185.867 181.27ZM231.383 199L229.613 193.03H222.263L220.493 199H217.883L224.303 178.06H227.633L234.053 199H231.383ZM226.073 180.73H225.803L222.863 190.84H229.013L226.073 180.73ZM257.85 178.06V190.63C257.85 191.65 257.88 192.56 257.94 193.36C258 194.16 258.16 194.85 258.42 195.43C258.68 195.99 259.08 196.42 259.62 196.72C260.18 197.02 260.95 197.17 261.93 197.17C262.91 197.17 263.67 197.02 264.21 196.72C264.77 196.42 265.18 195.99 265.44 195.43C265.7 194.85 265.86 194.16 265.92 193.36C265.98 192.56 266.01 191.65 266.01 190.63V178.06H268.53V190.03C268.53 191.59 268.45 192.95 268.29 194.11C268.15 195.27 267.84 196.24 267.36 197.02C266.9 197.8 266.23 198.39 265.35 198.79C264.49 199.17 263.35 199.36 261.93 199.36C260.51 199.36 259.36 199.17 258.48 198.79C257.62 198.39 256.95 197.8 256.47 197.02C256.01 196.24 255.7 195.27 255.54 194.11C255.4 192.95 255.33 191.59 255.33 190.03V178.06H257.85ZM299.166 180.25V199H296.646V180.25H289.656V178.06H306.156V180.25H299.166ZM337.963 189.49H329.803V199H327.283V178.06H329.803V187.3H337.963V178.06H340.483V199H337.963V189.49ZM369.859 199.36C368.579 199.36 367.479 199.12 366.559 198.64C365.639 198.14 364.879 197.43 364.279 196.51C363.679 195.59 363.239 194.46 362.959 193.12C362.679 191.78 362.539 190.25 362.539 188.53C362.539 186.83 362.679 185.31 362.959 183.97C363.239 182.61 363.679 181.47 364.279 180.55C364.879 179.63 365.639 178.93 366.559 178.45C367.479 177.95 368.579 177.7 369.859 177.7C371.139 177.7 372.239 177.95 373.159 178.45C374.079 178.93 374.839 179.63 375.439 180.55C376.039 181.47 376.479 182.61 376.759 183.97C377.039 185.31 377.179 186.83 377.179 188.53C377.179 190.25 377.039 191.78 376.759 193.12C376.479 194.46 376.039 195.59 375.439 196.51C374.839 197.43 374.079 198.14 373.159 198.64C372.239 199.12 371.139 199.36 369.859 199.36ZM369.859 197.17C370.699 197.17 371.409 197.01 371.989 196.69C372.569 196.35 373.049 195.88 373.429 195.28C373.809 194.68 374.079 193.96 374.239 193.12C374.419 192.26 374.509 191.3 374.509 190.24V186.82C374.509 185.78 374.419 184.83 374.239 183.97C374.079 183.11 373.809 182.38 373.429 181.78C373.049 181.18 372.569 180.72 371.989 180.4C371.409 180.06 370.699 179.89 369.859 179.89C369.019 179.89 368.309 180.06 367.729 180.4C367.149 180.72 366.669 181.18 366.289 181.78C365.909 182.38 365.629 183.11 365.449 183.97C365.289 184.83 365.209 185.78 365.209 186.82V190.24C365.209 191.3 365.289 192.26 365.449 193.12C365.629 193.96 365.909 194.68 366.289 195.28C366.669 195.88 367.149 196.35 367.729 196.69C368.309 197.01 369.019 197.17 369.859 197.17ZM402.056 199H399.536V178.06H407.156C409.096 178.06 410.576 178.59 411.596 179.65C412.616 180.71 413.126 182.19 413.126 184.09C413.126 185.79 412.686 187.15 411.806 188.17C410.926 189.19 409.646 189.78 407.966 189.94L413.306 199H410.486L405.386 190.06H402.056V199ZM407.096 187.93C408.156 187.93 408.976 187.67 409.556 187.15C410.156 186.61 410.456 185.85 410.456 184.87V183.31C410.456 182.33 410.156 181.58 409.556 181.06C408.976 180.52 408.156 180.25 407.096 180.25H402.056V187.93H407.096ZM435.333 199V196.99H440.553V180.07H435.333V178.06H448.293V180.07H443.073V196.99H448.293V199H435.333ZM485.349 199H470.229V196.75L482.079 180.25H470.739V178.06H484.839V180.31L472.959 196.81H485.349V199ZM507.466 199V178.06H520.366V180.25H509.986V187.3H520.006V189.49H509.986V196.81H520.366V199H507.466ZM543.592 178.06H549.442C552.002 178.06 553.912 178.94 555.172 180.7C556.432 182.46 557.062 185.07 557.062 188.53C557.062 191.99 556.432 194.6 555.172 196.36C553.912 198.12 552.002 199 549.442 199H543.592V178.06ZM549.322 196.81C551.002 196.81 552.262 196.23 553.102 195.07C553.962 193.91 554.392 192.27 554.392 190.15V186.91C554.392 184.79 553.962 183.15 553.102 181.99C552.262 180.83 551.002 180.25 549.322 180.25H546.112V196.81H549.322Z" fill="#EEF4E8"/>
<path d="M332.16 255V242.436H333.672V253.686H339.63V255H332.16ZM346.193 255.216C345.425 255.216 344.765 255.072 344.213 254.784C343.661 254.484 343.205 254.058 342.845 253.506C342.485 252.954 342.221 252.276 342.053 251.472C341.885 250.668 341.801 249.75 341.801 248.718C341.801 247.698 341.885 246.786 342.053 245.982C342.221 245.166 342.485 244.482 342.845 243.93C343.205 243.378 343.661 242.958 344.213 242.67C344.765 242.37 345.425 242.22 346.193 242.22C346.961 242.22 347.621 242.37 348.173 242.67C348.725 242.958 349.181 243.378 349.541 243.93C349.901 244.482 350.165 245.166 350.333 245.982C350.501 246.786 350.585 247.698 350.585 248.718C350.585 249.75 350.501 250.668 350.333 251.472C350.165 252.276 349.901 252.954 349.541 253.506C349.181 254.058 348.725 254.484 348.173 254.784C347.621 255.072 346.961 255.216 346.193 255.216ZM346.193 253.902C346.697 253.902 347.123 253.806 347.471 253.614C347.819 253.41 348.107 253.128 348.335 252.768C348.563 252.408 348.725 251.976 348.821 251.472C348.929 250.956 348.983 250.38 348.983 249.744V247.692C348.983 247.068 348.929 246.498 348.821 245.982C348.725 245.466 348.563 245.028 348.335 244.668C348.107 244.308 347.819 244.032 347.471 243.84C347.123 243.636 346.697 243.534 346.193 243.534C345.689 243.534 345.263 243.636 344.915 243.84C344.567 244.032 344.279 244.308 344.051 244.668C343.823 245.028 343.655 245.466 343.547 245.982C343.451 246.498 343.403 247.068 343.403 247.692V249.744C343.403 250.38 343.451 250.956 343.547 251.472C343.655 251.976 343.823 252.408 344.051 252.768C344.279 253.128 344.567 253.41 344.915 253.614C345.263 253.806 345.689 253.902 346.193 253.902ZM359.578 253.326H359.488C359.38 253.566 359.254 253.8 359.11 254.028C358.966 254.256 358.78 254.46 358.552 254.64C358.336 254.808 358.072 254.946 357.76 255.054C357.448 255.162 357.076 255.216 356.644 255.216C355.276 255.216 354.256 254.664 353.584 253.56C352.924 252.456 352.594 250.872 352.594 248.808C352.594 246.648 352.96 245.01 353.692 243.894C354.424 242.778 355.552 242.22 357.076 242.22C357.664 242.22 358.174 242.298 358.606 242.454C359.038 242.61 359.404 242.82 359.704 243.084C360.016 243.348 360.274 243.648 360.478 243.984C360.682 244.308 360.85 244.638 360.982 244.974L359.686 245.568C359.578 245.292 359.452 245.034 359.308 244.794C359.176 244.542 359.008 244.326 358.804 244.146C358.612 243.954 358.378 243.804 358.102 243.696C357.826 243.588 357.502 243.534 357.13 243.534C356.122 243.534 355.378 243.912 354.898 244.668C354.43 245.424 354.196 246.432 354.196 247.692V249.636C354.196 250.272 354.244 250.854 354.34 251.382C354.436 251.898 354.592 252.348 354.808 252.732C355.036 253.116 355.324 253.416 355.672 253.632C356.032 253.836 356.47 253.938 356.986 253.938C357.802 253.938 358.438 253.692 358.894 253.2C359.35 252.708 359.578 252.072 359.578 251.292V249.996H356.932V248.79H360.982V255H359.578V253.326ZM363.891 255V253.794H367.023V243.642H363.891V242.436H371.667V243.642H368.535V253.794H371.667V255H363.891ZM376.106 244.362H375.98V255H374.612V242.436H376.754L381.038 252.966H381.164V242.436H382.532V255H380.39L376.106 244.362Z" fill="#EEF4E8"/>
<rect x="319" y="235" width="76" height="29" stroke="#EEF4E8" stroke-width="2"/>
</svg>
