<svg width="717" height="753" viewBox="0 0 717 753" fill="none" xmlns="http://www.w3.org/2000/svg">
<rect width="717" height="753" rx="44" fill="#2B2D29"/>
<rect x="37" y="37" width="643" height="679" rx="42" fill="#080F08" stroke="black" stroke-width="4"/>
<rect x="108" y="227" width="500" height="300" fill="#080E08" stroke="#182F24" stroke-width="4"/>
<path d="M111.322 229.927H604.678V284.073H111.322V229.927Z" fill="#182F24"/>
<path d="M319.68 353V344.78H299.04V340.34L317.16 311.12H324.48V340.64H330.72V344.78H324.48V353H319.68ZM303.54 340.64H319.68V315.02H319.44L303.54 340.64ZM350.977 353.72C348.417 353.72 346.217 353.24 344.377 352.28C342.537 351.28 341.017 349.86 339.817 348.02C338.617 346.18 337.737 343.92 337.177 341.24C336.617 338.56 336.337 335.5 336.337 332.06C336.337 328.66 336.617 325.62 337.177 322.94C337.737 320.22 338.617 317.94 339.817 316.1C341.017 314.26 342.537 312.86 344.377 311.9C346.217 310.9 348.417 310.4 350.977 310.4C353.537 310.4 355.737 310.9 357.577 311.9C359.417 312.86 360.937 314.26 362.137 316.1C363.337 317.94 364.217 320.22 364.777 322.94C365.337 325.62 365.617 328.66 365.617 332.06C365.617 335.5 365.337 338.56 364.777 341.24C364.217 343.92 363.337 346.18 362.137 348.02C360.937 349.86 359.417 351.28 357.577 352.28C355.737 353.24 353.537 353.72 350.977 353.72ZM350.977 349.34C352.657 349.34 354.097 349.02 355.297 348.38C356.497 347.7 357.457 346.76 358.177 345.56C358.937 344.36 359.497 342.92 359.857 341.24C360.217 339.52 360.397 337.6 360.397 335.48V328.64C360.397 326.56 360.217 324.66 359.857 322.94C359.497 321.22 358.937 319.76 358.177 318.56C357.457 317.36 356.497 316.44 355.297 315.8C354.097 315.12 352.657 314.78 350.977 314.78C349.297 314.78 347.857 315.12 346.657 315.8C345.457 316.44 344.477 317.36 343.717 318.56C342.997 319.76 342.457 321.22 342.097 322.94C341.737 324.66 341.557 326.56 341.557 328.64V335.48C341.557 337.6 341.737 339.52 342.097 341.24C342.457 342.92 342.997 344.36 343.717 345.56C344.477 346.76 345.457 347.7 346.657 348.38C347.857 349.02 349.297 349.34 350.977 349.34ZM350.977 335.6C349.577 335.6 348.597 335.32 348.037 334.76C347.517 334.2 347.257 333.52 347.257 332.72V331.4C347.257 330.6 347.517 329.92 348.037 329.36C348.597 328.8 349.577 328.52 350.977 328.52C352.377 328.52 353.337 328.8 353.857 329.36C354.417 329.92 354.697 330.6 354.697 331.4V332.72C354.697 333.52 354.417 334.2 353.857 334.76C353.337 335.32 352.377 335.6 350.977 335.6ZM374.053 353V348.62H386.053V314.84H385.633L375.073 324.68L372.133 321.5L383.233 311.12H391.093V348.62H402.133V353H374.053Z" fill="#EEF4E8"/>
<path d="M148.92 387.06V399.63C148.92 400.65 148.95 401.56 149.01 402.36C149.07 403.16 149.23 403.85 149.49 404.43C149.75 404.99 150.15 405.42 150.69 405.72C151.25 406.02 152.02 406.17 153 406.17C153.98 406.17 154.74 406.02 155.28 405.72C155.84 405.42 156.25 404.99 156.51 404.43C156.77 403.85 156.93 403.16 156.99 402.36C157.05 401.56 157.08 400.65 157.08 399.63V387.06H159.6V399.03C159.6 400.59 159.52 401.95 159.36 403.11C159.22 404.27 158.91 405.24 158.43 406.02C157.97 406.8 157.3 407.39 156.42 407.79C155.56 408.17 154.42 408.36 153 408.36C151.58 408.36 150.43 408.17 149.55 407.79C148.69 407.39 148.02 406.8 147.54 406.02C147.08 405.24 146.77 404.27 146.61 403.11C146.47 401.95 146.4 400.59 146.4 399.03V387.06H148.92ZM184.867 390.27H184.657V408H182.377V387.06H185.947L193.087 404.61H193.297V387.06H195.577V408H192.007L184.867 390.27ZM230.383 408L228.613 402.03H221.263L219.493 408H216.883L223.303 387.06H226.633L233.053 408H230.383ZM225.073 389.73H224.803L221.863 399.84H228.013L225.073 389.73ZM256.85 387.06V399.63C256.85 400.65 256.88 401.56 256.94 402.36C257 403.16 257.16 403.85 257.42 404.43C257.68 404.99 258.08 405.42 258.62 405.72C259.18 406.02 259.95 406.17 260.93 406.17C261.91 406.17 262.67 406.02 263.21 405.72C263.77 405.42 264.18 404.99 264.44 404.43C264.7 403.85 264.86 403.16 264.92 402.36C264.98 401.56 265.01 400.65 265.01 399.63V387.06H267.53V399.03C267.53 400.59 267.45 401.95 267.29 403.11C267.15 404.27 266.84 405.24 266.36 406.02C265.9 406.8 265.23 407.39 264.35 407.79C263.49 408.17 262.35 408.36 260.93 408.36C259.51 408.36 258.36 408.17 257.48 407.79C256.62 407.39 255.95 406.8 255.47 406.02C255.01 405.24 254.7 404.27 254.54 403.11C254.4 401.95 254.33 400.59 254.33 399.03V387.06H256.85ZM298.166 389.25V408H295.646V389.25H288.656V387.06H305.156V389.25H298.166ZM336.963 398.49H328.803V408H326.283V387.06H328.803V396.3H336.963V387.06H339.483V408H336.963V398.49ZM368.859 408.36C367.579 408.36 366.479 408.12 365.559 407.64C364.639 407.14 363.879 406.43 363.279 405.51C362.679 404.59 362.239 403.46 361.959 402.12C361.679 400.78 361.539 399.25 361.539 397.53C361.539 395.83 361.679 394.31 361.959 392.97C362.239 391.61 362.679 390.47 363.279 389.55C363.879 388.63 364.639 387.93 365.559 387.45C366.479 386.95 367.579 386.7 368.859 386.7C370.139 386.7 371.239 386.95 372.159 387.45C373.079 387.93 373.839 388.63 374.439 389.55C375.039 390.47 375.479 391.61 375.759 392.97C376.039 394.31 376.179 395.83 376.179 397.53C376.179 399.25 376.039 400.78 375.759 402.12C375.479 403.46 375.039 404.59 374.439 405.51C373.839 406.43 373.079 407.14 372.159 407.64C371.239 408.12 370.139 408.36 368.859 408.36ZM368.859 406.17C369.699 406.17 370.409 406.01 370.989 405.69C371.569 405.35 372.049 404.88 372.429 404.28C372.809 403.68 373.079 402.96 373.239 402.12C373.419 401.26 373.509 400.3 373.509 399.24V395.82C373.509 394.78 373.419 393.83 373.239 392.97C373.079 392.11 372.809 391.38 372.429 390.78C372.049 390.18 371.569 389.72 370.989 389.4C370.409 389.06 369.699 388.89 368.859 388.89C368.019 388.89 367.309 389.06 366.729 389.4C366.149 389.72 365.669 390.18 365.289 390.78C364.909 391.38 364.629 392.11 364.449 392.97C364.289 393.83 364.209 394.78 364.209 395.82V399.24C364.209 400.3 364.289 401.26 364.449 402.12C364.629 402.96 364.909 403.68 365.289 404.28C365.669 404.88 366.149 405.35 366.729 405.69C367.309 406.01 368.019 406.17 368.859 406.17ZM401.056 408H398.536V387.06H406.156C408.096 387.06 409.576 387.59 410.596 388.65C411.616 389.71 412.126 391.19 412.126 393.09C412.126 394.79 411.686 396.15 410.806 397.17C409.926 398.19 408.646 398.78 406.966 398.94L412.306 408H409.486L404.386 399.06H401.056V408ZM406.096 396.93C407.156 396.93 407.976 396.67 408.556 396.15C409.156 395.61 409.456 394.85 409.456 393.87V392.31C409.456 391.33 409.156 390.58 408.556 390.06C407.976 389.52 407.156 389.25 406.096 389.25H401.056V396.93H406.096ZM434.333 408V405.99H439.553V389.07H434.333V387.06H447.293V389.07H442.073V405.99H447.293V408H434.333ZM484.349 408H469.229V405.75L481.079 389.25H469.739V387.06H483.839V389.31L471.959 405.81H484.349V408ZM506.466 408V387.06H519.366V389.25H508.986V396.3H519.006V398.49H508.986V405.81H519.366V408H506.466ZM542.592 387.06H548.442C551.002 387.06 552.912 387.94 554.172 389.7C555.432 391.46 556.062 394.07 556.062 397.53C556.062 400.99 555.432 403.6 554.172 405.36C552.912 407.12 551.002 408 548.442 408H542.592V387.06ZM548.322 405.81C550.002 405.81 551.262 405.23 552.102 404.07C552.962 402.91 553.392 401.27 553.392 399.15V395.91C553.392 393.79 552.962 392.15 552.102 390.99C551.262 389.83 550.002 389.25 548.322 389.25H545.112V405.81H548.322Z" fill="#EEF4E8"/>
<path d="M331.16 495V482.436H332.672V493.686H338.63V495H331.16ZM345.193 495.216C344.425 495.216 343.765 495.072 343.213 494.784C342.661 494.484 342.205 494.058 341.845 493.506C341.485 492.954 341.221 492.276 341.053 491.472C340.885 490.668 340.801 489.75 340.801 488.718C340.801 487.698 340.885 486.786 341.053 485.982C341.221 485.166 341.485 484.482 341.845 483.93C342.205 483.378 342.661 482.958 343.213 482.67C343.765 482.37 344.425 482.22 345.193 482.22C345.961 482.22 346.621 482.37 347.173 482.67C347.725 482.958 348.181 483.378 348.541 483.93C348.901 484.482 349.165 485.166 349.333 485.982C349.501 486.786 349.585 487.698 349.585 488.718C349.585 489.75 349.501 490.668 349.333 491.472C349.165 492.276 348.901 492.954 348.541 493.506C348.181 494.058 347.725 494.484 347.173 494.784C346.621 495.072 345.961 495.216 345.193 495.216ZM345.193 493.902C345.697 493.902 346.123 493.806 346.471 493.614C346.819 493.41 347.107 493.128 347.335 492.768C347.563 492.408 347.725 491.976 347.821 491.472C347.929 490.956 347.983 490.38 347.983 489.744V487.692C347.983 487.068 347.929 486.498 347.821 485.982C347.725 485.466 347.563 485.028 347.335 484.668C347.107 484.308 346.819 484.032 346.471 483.84C346.123 483.636 345.697 483.534 345.193 483.534C344.689 483.534 344.263 483.636 343.915 483.84C343.567 484.032 343.279 484.308 343.051 484.668C342.823 485.028 342.655 485.466 342.547 485.982C342.451 486.498 342.403 487.068 342.403 487.692V489.744C342.403 490.38 342.451 490.956 342.547 491.472C342.655 491.976 342.823 492.408 343.051 492.768C343.279 493.128 343.567 493.41 343.915 493.614C344.263 493.806 344.689 493.902 345.193 493.902ZM358.578 493.326H358.488C358.38 493.566 358.254 493.8 358.11 494.028C357.966 494.256 357.78 494.46 357.552 494.64C357.336 494.808 357.072 494.946 356.76 495.054C356.448 495.162 356.076 495.216 355.644 495.216C354.276 495.216 353.256 494.664 352.584 493.56C351.924 492.456 351.594 490.872 351.594 488.808C351.594 486.648 351.96 485.01 352.692 483.894C353.424 482.778 354.552 482.22 356.076 482.22C356.664 482.22 357.174 482.298 357.606 482.454C358.038 482.61 358.404 482.82 358.704 483.084C359.016 483.348 359.274 483.648 359.478 483.984C359.682 484.308 359.85 484.638 359.982 484.974L358.686 485.568C358.578 485.292 358.452 485.034 358.308 484.794C358.176 484.542 358.008 484.326 357.804 484.146C357.612 483.954 357.378 483.804 357.102 483.696C356.826 483.588 356.502 483.534 356.13 483.534C355.122 483.534 354.378 483.912 353.898 484.668C353.43 485.424 353.196 486.432 353.196 487.692V489.636C353.196 490.272 353.244 490.854 353.34 491.382C353.436 491.898 353.592 492.348 353.808 492.732C354.036 493.116 354.324 493.416 354.672 493.632C355.032 493.836 355.47 493.938 355.986 493.938C356.802 493.938 357.438 493.692 357.894 493.2C358.35 492.708 358.578 492.072 358.578 491.292V489.996H355.932V488.79H359.982V495H358.578V493.326ZM362.891 495V493.794H366.023V483.642H362.891V482.436H370.667V483.642H367.535V493.794H370.667V495H362.891ZM375.106 484.362H374.98V495H373.612V482.436H375.754L380.038 492.966H380.164V482.436H381.532V495H379.39L375.106 484.362Z" fill="#EEF4E8"/>
<rect x="318" y="475" width="76" height="29" stroke="#EEF4E8" stroke-width="2"/>
</svg>
